# xmcd CD database file
#
# Track frame offsets:
#	150
#	2012
#	14725
#	27252
#	51860
#	62292
#	77170
#	90975
#	104342
#	121030
#	135555
#	161902
#	174052
#	185737
#	210540
#	230425
#	241620
#	261045
#	275762
#	293650
#
# Disc length: 4089 seconds
#
# Revision: 4
# Processed by: cddbd v1.5.1PL0 Copyright (c) Steve Scherf et al.
# Submitted via: CDex 1.51
#
DISCID=030ff714
DTITLE=Ted Hawkins - The Final Tour
DYEAR=1998
DGENRE=Blues
TTITLE0=Intro
TTITLE1=There Stands The Glass
TTITLE2=Watch Your Step
TTITLE3=Strange Conversation
TTITLE4=Sorry You're Sick
TTITLE5=Bring It On Home Daddy
TTITLE6=Big Things
TTITLE7=Revenge Of Scorpio
TTITLE8=Groovy Little Things
TTITLE9=Ladder Of Success
TTITLE10=Part Time Love
TTITLE11=I Got What I Wanted
TTITLE12=Bad Dog
TTITLE13=The Good And The Bad
TTITLE14=All I Have To Offer You Is Me
TTITLE15=Long As I Can See The Light
TTITLE16=Biloxi
TTITLE17=The Lost Ones
TTITLE18=Missin' Mississippi
TTITLE19=A Thing Called Love
EXTD=YEAR: 1998
EXTT0=
EXTT1=
EXTT2=
EXTT3=
EXTT4=
EXTT5=
EXTT6=
EXTT7=
EXTT8=
EXTT9=
EXTT10=
EXTT11=
EXTT12=
EXTT13=
EXTT14=
EXTT15=
EXTT16=
EXTT17=
EXTT18=
EXTT19=
PLAYORDER=
